# xmcd CD database file
#
# Track frame offsets:
#	150
#	34380
#	46970
#	60325
#	73935
#	87985
#	102450
#	115130
#	127415
#	139985
#	153115
#	167257
#	182815
#	194915
#	217160
#	281155
#	327870
#
# Disc length: 4815 seconds
#
# Revision: 1
# Processed by: cddbd v1.4PL0 Copyright (c) Steve Scherf et al.
# Submitted via: CDex 1.51
#
DISCID=0e12cd11
DTITLE=Ken Burns Jazz - Dizzy Gillespie
DYEAR=2000
DGENRE=Jazz
TTITLE0=Data
TTITLE1=Pickin the cabbage
TTITLE2=Disorder at the border
TTITLE3=Salt peanuts
TTITLE4=I can't get started
TTITLE5=A night in Tunisia
TTITLE6=Dizzy atmosphere
TTITLE7=Groovin high
TTITLE8=Things to come
TTITLE9=One base hit, no. 2
TTITLE10=Manteca
TTITLE11=Bloomdido
TTITLE12=Tin tin deo
TTITLE13=Birks works
TTITLE14=The eternal triangle
TTITLE15=No more blues (Chega de saudade)
TTITLE16=Swing low, sweet cadillac
EXTD=YEAR: 2000
EXTT0=
EXTT1=
EXTT2=
EXTT3=
EXTT4=
EXTT5=
EXTT6=
EXTT7=
EXTT8=
EXTT9=
EXTT10=
EXTT11=
EXTT12=
EXTT13=
EXTT14=
EXTT15=
EXTT16=
PLAYORDER=
